<svg width="193" height="252" viewBox="0 0 193 252" fill="none" xmlns="http://www.w3.org/2000/svg">
<g filter="url(#filter0_d_537_1459)">
<rect x="1.20367" y="25.6683" width="44.7514" height="270" rx="10" transform="rotate(-35 1.20367 25.6683)" fill="#F7F3F2"/>
<path opacity="0.7" d="M123.197 179.949L123.109 180.023C122.917 180.186 122.68 180.286 122.429 180.311L121.681 180.383C121.593 180.392 121.505 180.391 121.418 180.381L120.793 180.308C120.443 180.267 120.126 180.078 119.924 179.789L119.445 179.106C119.356 178.979 119.292 178.836 119.256 178.685L119.032 177.757C119.009 177.658 118.997 177.557 118.998 177.455L119.009 176.432C119.012 176.113 119.183 175.82 119.459 175.66L119.675 175.534C120.01 175.339 120.44 175.468 120.613 175.816L120.677 175.946C120.848 176.291 121.307 176.367 121.581 176.097C121.84 175.841 122.271 175.894 122.461 176.206L122.999 177.094C123.042 177.165 123.078 177.24 123.106 177.318L123.561 178.589C123.735 179.074 123.59 179.616 123.197 179.949Z" fill="#B39499" stroke="#B39499" stroke-width="0.25"/>
<path opacity="0.7" d="M115.19 126.882L115.062 126.805C114.852 126.678 114.684 126.492 114.579 126.268L114.249 125.566C114.212 125.487 114.184 125.404 114.164 125.319L114.021 124.71C113.939 124.359 114.012 123.989 114.221 123.697L114.684 123.052C114.777 122.922 114.894 122.812 115.028 122.728L115.814 122.232C115.901 122.178 115.994 122.134 116.092 122.103L117.053 121.795C117.356 121.698 117.687 121.766 117.928 121.975L118.139 122.158C118.429 122.41 118.447 122.856 118.179 123.128L118.096 123.213C117.822 123.491 117.899 123.958 118.247 124.135C118.576 124.301 118.666 124.734 118.431 125.019L117.796 125.79C117.741 125.855 117.681 125.915 117.614 125.968L116.583 126.791C116.183 127.11 115.629 127.146 115.19 126.882Z" fill="#B39499" stroke="#B39499" stroke-width="0.25"/>
<path opacity="0.7" d="M60.3338 61.3924L61.004 61.2809C61.2706 61.2366 61.5453 61.2929 61.7744 61.4389L61.8042 61.4578C62.1845 61.7001 62.6754 61.6735 63.0214 61.3919C63.4872 61.0128 64.1828 61.1114 64.5329 61.6061L64.9646 62.2163C65.1953 62.5424 65.6225 62.665 65.9877 62.5099C66.3857 62.341 66.8506 62.5028 67.0609 62.8834L67.6728 63.991C67.936 64.4673 67.8584 65.0555 67.4814 65.4414L66.421 66.5265C65.8615 67.0992 64.9045 66.9894 64.4771 66.3035L63.69 65.0401C63.6356 64.9529 63.5706 64.8726 63.4965 64.8011L62.3035 63.6494C62.0687 63.4228 61.7547 63.2962 61.4294 63.297L60.5155 63.2992C60.3039 63.2997 60.0973 63.2309 59.9275 63.1035C59.249 62.5943 59.5015 61.5309 60.3338 61.3924Z" fill="#4E4E4E" stroke="#4E4E4E" stroke-width="0.25"/>
<path opacity="0.7" d="M110.754 110.602L110.343 111.139C110.179 111.354 109.942 111.499 109.677 111.546L109.642 111.552C109.203 111.629 108.865 111.983 108.803 112.429C108.72 113.029 108.148 113.428 107.562 113.297L106.836 113.135C106.449 113.048 106.057 113.247 105.896 113.612C105.721 114.008 105.274 114.204 104.866 114.063L103.674 113.651C103.163 113.475 102.825 112.984 102.839 112.439L102.879 110.91C102.9 110.101 103.67 109.53 104.442 109.752L105.863 110.159C105.961 110.188 106.062 110.203 106.164 110.206L107.805 110.255C108.128 110.264 108.442 110.145 108.678 109.923L109.339 109.301C109.493 109.156 109.69 109.067 109.899 109.046C110.735 108.965 111.266 109.931 110.754 110.602Z" fill="#4E4E4E" stroke="#4E4E4E" stroke-width="0.25"/>
<path opacity="0.7" d="M112.084 161.388L111.404 161.441C111.134 161.461 110.865 161.381 110.649 161.216L110.622 161.195C110.263 160.921 109.771 160.904 109.402 161.154C108.904 161.491 108.218 161.332 107.911 160.808L107.535 160.166C107.332 159.821 106.917 159.661 106.539 159.784C106.127 159.917 105.677 159.715 105.5 159.317L104.986 158.165C104.764 157.667 104.893 157.087 105.302 156.736L106.455 155.747C107.062 155.227 108.005 155.42 108.372 156.139L109.049 157.466C109.096 157.558 109.154 157.644 109.221 157.721L110.312 158.971C110.527 159.217 110.829 159.37 111.153 159.398L112.067 159.475C112.277 159.493 112.477 159.579 112.635 159.72C113.267 160.286 112.925 161.323 112.084 161.388Z" fill="#4E4E4E" stroke="#4E4E4E" stroke-width="0.25"/>
<path opacity="0.7" d="M159.182 210.308L159.233 210.997C159.254 211.267 159.173 211.535 159.007 211.75L158.987 211.776C158.711 212.133 158.693 212.625 158.942 212.998C159.277 213.502 159.115 214.187 158.588 214.489L157.953 214.854C157.606 215.054 157.445 215.468 157.566 215.848C157.698 216.263 157.494 216.712 157.094 216.885L155.953 217.38C155.452 217.597 154.869 217.461 154.519 217.045L153.531 215.872C153.016 215.26 153.212 214.324 153.93 213.966L155.259 213.304C155.351 213.258 155.438 213.201 155.516 213.133L156.766 212.057C157.012 211.845 157.165 211.546 157.193 211.224L157.274 210.303C157.292 210.095 157.378 209.897 157.519 209.742C158.084 209.116 159.12 209.469 159.182 210.308Z" fill="#4E4E4E" stroke="#4E4E4E" stroke-width="0.25"/>
<path opacity="0.7" d="M30.8225 8.02885L31.294 7.54727C31.4828 7.35446 31.7363 7.23963 32.0049 7.22529L32.0406 7.22339C32.4862 7.19961 32.8657 6.88965 32.9806 6.45568C33.1351 5.872 33.7508 5.54473 34.317 5.74533L35.0222 5.99516C35.3954 6.12738 35.8095 5.97737 36.0132 5.6361C36.2351 5.2644 36.7019 5.12432 37.09 5.31299L38.2298 5.86712C38.7156 6.10329 38.9925 6.62999 38.9132 7.167L38.6903 8.67592C38.5721 9.47622 37.7365 9.94978 36.9951 9.63664L35.6319 9.06086C35.538 9.02118 35.4395 8.99338 35.3388 8.97808L33.7122 8.73116C33.3918 8.68253 33.0654 8.76284 32.8035 8.9547L32.0729 9.49006C31.9021 9.61514 31.6952 9.68011 31.4841 9.6749C30.6428 9.65417 30.232 8.63205 30.8225 8.02885Z" fill="#4E4E4E" stroke="#4E4E4E" stroke-width="0.25"/>
<path opacity="0.7" d="M151.573 173.699L151.446 173.622C151.236 173.495 151.068 173.309 150.963 173.085L150.633 172.383C150.596 172.304 150.567 172.221 150.547 172.136L150.405 171.527C150.322 171.176 150.395 170.806 150.605 170.514L151.068 169.869C151.161 169.739 151.277 169.629 151.412 169.545L152.198 169.05C152.285 168.995 152.378 168.951 152.476 168.92L153.437 168.612C153.74 168.515 154.07 168.583 154.312 168.792L154.523 168.975C154.813 169.227 154.831 169.673 154.563 169.945L154.48 170.03C154.206 170.308 154.283 170.775 154.631 170.952C154.96 171.118 155.05 171.551 154.815 171.836L154.18 172.607C154.125 172.672 154.064 172.732 153.998 172.785L152.967 173.608C152.567 173.927 152.012 173.963 151.573 173.699Z" fill="#B39499" stroke="#B39499" stroke-width="0.25"/>
<path opacity="0.7" d="M156.838 233.787L156.704 233.823C156.465 233.887 156.212 233.878 155.977 233.797L155.249 233.546C155.166 233.518 155.086 233.481 155.011 233.436L154.473 233.113C154.165 232.928 153.951 232.62 153.886 232.268L153.74 231.476C153.711 231.321 153.713 231.162 153.744 231.008L153.932 230.091C153.952 229.991 153.985 229.894 154.03 229.802L154.472 228.892C154.611 228.607 154.889 228.416 155.207 228.387L155.478 228.363C155.861 228.329 156.196 228.626 156.207 229.01L156.211 229.136C156.222 229.524 156.61 229.792 156.977 229.664C157.324 229.542 157.698 229.777 157.74 230.142L157.856 231.145C157.866 231.229 157.867 231.314 157.859 231.398L157.739 232.719C157.692 233.229 157.334 233.654 156.838 233.787Z" fill="#B39499" stroke="#B39499" stroke-width="0.25"/>
<path opacity="0.7" d="M62.1337 81.9774L62.0065 81.9006C61.7965 81.774 61.6284 81.5872 61.5236 81.3641L61.1936 80.6615C61.1565 80.5825 61.1277 80.4997 61.1078 80.4147L60.9651 79.8059C60.8828 79.4545 60.9558 79.0847 61.1652 78.7929L61.6284 78.1473C61.7211 78.018 61.8378 77.9081 61.9719 77.8236L62.7583 77.3282C62.8452 77.2734 62.9387 77.2299 63.0364 77.1985L63.9976 76.8905C64.2999 76.7936 64.6308 76.8619 64.872 77.071L65.0832 77.2542C65.3729 77.5053 65.3912 77.9513 65.123 78.224L65.04 78.3083C64.7664 78.5864 64.843 79.054 65.191 79.2303C65.5204 79.3972 65.6107 79.83 65.3754 80.1152L64.7399 80.8854C64.6857 80.9512 64.6248 81.0111 64.5583 81.0641L63.5273 81.8869C63.1273 82.2061 62.5728 82.2421 62.1337 81.9774Z" fill="#B39499" stroke="#B39499" stroke-width="0.25"/>
<path opacity="0.7" d="M28.6019 21.3335L28.6403 21.214C28.7167 20.9759 28.863 20.7674 29.0598 20.6161L29.6575 20.1567C29.7265 20.1037 29.8009 20.0583 29.8796 20.0212L30.4427 19.7559C30.7615 19.6057 31.1302 19.6019 31.4548 19.7454L32.207 20.0778C32.3499 20.141 32.4799 20.2309 32.5902 20.3426L33.2593 21.021C33.3314 21.094 33.3943 21.1757 33.4466 21.2641L33.9694 22.1479C34.1329 22.4243 34.1419 22.7657 33.9932 23.0475L33.8724 23.2763C33.6923 23.6175 33.2625 23.7304 32.936 23.5224L32.8201 23.4485C32.4933 23.2403 32.0637 23.4138 31.9731 23.7906C31.8872 24.1478 31.4931 24.3272 31.1681 24.1571L30.2582 23.6808C30.1839 23.642 30.1137 23.5956 30.0486 23.5425L29.0053 22.6915C28.605 22.365 28.4444 21.8241 28.6019 21.3335Z" fill="#B39499" stroke="#B39499" stroke-width="0.25"/>
<path opacity="0.7" d="M136.722 188.227C136.557 187.406 137.729 186.063 138.554 185.036C138.803 184.727 139.177 184.539 139.573 184.542L140.313 184.547C140.404 184.548 140.495 184.539 140.585 184.519L142.045 184.201C142.434 184.116 142.839 184.224 143.135 184.49L143.841 185.124C144.121 185.377 144.502 185.487 144.874 185.424L146.024 185.229C146.203 185.198 146.372 185.122 146.513 185.007L146.67 184.879C147.147 184.491 147.864 184.681 148.086 185.254C148.156 185.435 148.166 185.633 148.115 185.82L147.805 186.956C147.756 187.136 147.752 187.324 147.771 187.51C147.933 189.103 146.865 190.123 146.388 190.457C146.153 190.621 145.112 190.651 144.286 192.419C143.937 193.166 143.039 193.563 142.326 193.146L142.139 193.036C142.029 192.972 141.909 192.925 141.784 192.897L139.66 192.423C137.562 192.214 136.916 189.189 136.722 188.227Z" fill="#AEC0C1" stroke="#AEC0C1" stroke-width="0.25"/>
<path opacity="0.7" d="M169.856 219.178C169.691 218.357 170.864 217.014 171.689 215.987C171.937 215.678 172.311 215.49 172.708 215.493L173.447 215.499C173.539 215.499 173.63 215.49 173.719 215.47L175.18 215.152C175.568 215.067 175.974 215.175 176.27 215.441L176.975 216.075C177.256 216.328 177.637 216.438 178.009 216.375L179.158 216.18C179.338 216.149 179.506 216.073 179.647 215.958L179.804 215.83C180.281 215.442 180.998 215.632 181.22 216.206C181.29 216.386 181.301 216.584 181.25 216.771L180.94 217.907C180.891 218.087 180.887 218.276 180.906 218.461C181.067 220.054 179.999 221.074 179.523 221.408C179.288 221.573 178.247 221.602 177.421 223.37C177.072 224.118 176.173 224.514 175.461 224.097L175.274 223.987C175.163 223.923 175.043 223.876 174.919 223.848L172.795 223.374C170.697 223.165 170.05 220.14 169.856 219.178Z" fill="#AEC0C1" stroke="#AEC0C1" stroke-width="0.25"/>
<path opacity="0.7" d="M99.5584 128.346C100.278 127.93 101.957 128.636 103.206 129.1C103.568 129.235 103.859 129.52 103.987 129.887L104.242 130.613C104.272 130.698 104.311 130.78 104.358 130.857L105.159 132.152C105.37 132.493 105.405 132.915 105.253 133.285L104.905 134.134C104.761 134.486 104.785 134.885 104.97 135.218L105.549 136.257C105.637 136.415 105.763 136.547 105.915 136.643L106.125 136.775C106.637 137.097 106.688 137.829 106.226 138.218C106.08 138.342 105.897 138.414 105.706 138.424L104.531 138.484C104.344 138.494 104.164 138.55 103.993 138.627C102.552 139.274 101.231 138.579 100.756 138.231C100.519 138.057 100.132 137.062 98.1455 136.84C97.3415 136.75 96.6902 136.038 96.8384 135.236L96.8819 135.001C96.9055 134.873 96.9091 134.743 96.8925 134.614L96.6146 132.449C96.0964 130.39 98.7194 128.831 99.5584 128.346Z" fill="#AEC0C1" stroke="#AEC0C1" stroke-width="0.25"/>
<path opacity="0.7" d="M92.9904 101.5C92.5974 102.232 90.822 102.501 89.5263 102.754C89.1428 102.828 88.74 102.733 88.4366 102.48L87.8554 101.995C87.7851 101.936 87.7086 101.885 87.6274 101.843L86.284 101.147C85.9282 100.963 85.6802 100.619 85.6178 100.224L85.4716 99.2989C85.4123 98.9238 85.1854 98.5939 84.8557 98.4036L83.8323 97.8128C83.6747 97.7218 83.4971 97.6724 83.3164 97.6694L83.0934 97.6656C82.4836 97.6552 82.0525 97.0508 82.2427 96.473C82.3028 96.2904 82.4204 96.1329 82.5779 96.024L83.5405 95.3585C83.6933 95.2529 83.8166 95.1109 83.9204 94.9566C84.8047 93.6433 86.2843 93.5521 86.8669 93.6039C87.1558 93.6296 87.9918 94.2799 89.7717 93.45C90.5094 93.106 91.4457 93.3803 91.7359 94.1519L91.8163 94.3654C91.8618 94.4865 91.9258 94.6 92.0059 94.7019L93.361 96.4238C94.8642 97.928 93.45 100.643 92.9904 101.5Z" fill="#AEC0C1" stroke="#AEC0C1" stroke-width="0.25"/>
<path opacity="0.7" d="M37.6884 74.8957C36.8841 74.657 36.2107 72.9601 35.6653 71.7382C35.5065 71.3825 35.5063 70.9751 35.6799 70.6304L36.0209 69.9532C36.0613 69.873 36.0927 69.7886 36.1145 69.7013L36.4804 68.239C36.5768 67.8535 36.8546 67.5405 37.2264 67.3985L38.0823 67.0716C38.4355 66.9366 38.705 66.6468 38.8134 66.2853L39.1514 65.158C39.2029 64.9865 39.2097 64.8042 39.1714 64.6282L39.1196 64.3907C38.9904 63.7977 39.4792 63.2594 40.0834 63.3294C40.2751 63.3516 40.4551 63.435 40.5967 63.5671L41.466 64.3783C41.6042 64.5072 41.7715 64.5999 41.9463 64.6712C43.4247 65.2747 43.8551 66.708 43.9395 67.2901C43.9815 67.58 43.5401 68.5377 44.7736 70.1275C45.2753 70.7742 45.2234 71.7351 44.5432 72.1746L44.3459 72.302C44.238 72.3717 44.1418 72.4581 44.0611 72.5578L42.703 74.2349C41.5899 76.0143 38.6262 75.174 37.6884 74.8957Z" fill="#AEC0C1" stroke="#AEC0C1" stroke-width="0.25"/>
<path opacity="0.7" d="M140.59 209.582L140.207 208.785C140.178 208.725 140.144 208.667 140.106 208.612L139.16 207.262C139.02 207.062 138.945 206.824 138.946 206.58C138.947 206.151 139.185 205.753 139.559 205.544C139.854 205.379 140.07 205.096 140.148 204.767L140.205 204.531C140.285 204.194 140.502 203.906 140.804 203.737L141.327 203.445C141.381 203.415 141.434 203.38 141.483 203.342L142.874 202.259C143.175 202.024 143.568 201.942 143.938 202.036L146.394 202.661C146.875 202.783 147.236 203.18 147.311 203.67L147.339 203.851C147.378 204.103 147.339 204.36 147.226 204.589L146.814 205.421C146.672 205.71 146.647 206.043 146.746 206.349L147.073 207.362C147.176 207.681 147.146 208.028 146.988 208.324L146.958 208.381C146.669 208.921 146.029 209.169 145.452 208.964L144.684 208.691C144.189 208.514 143.636 208.671 143.306 209.081L142.702 209.832C142.382 210.229 141.852 210.39 141.365 210.236L141.331 210.225C141.006 210.122 140.738 209.889 140.59 209.582Z" fill="#AF7E46" stroke="#AF7E46" stroke-width="0.25"/>
<path opacity="0.7" d="M119.515 141.857L120.115 141.261C120.164 141.213 120.209 141.16 120.249 141.104L121.186 139.799C121.331 139.596 121.536 139.446 121.772 139.368C122.17 139.236 122.608 139.329 122.922 139.61L122.954 139.638C123.206 139.864 123.54 139.976 123.876 139.948L124.131 139.926C124.467 139.898 124.8 140.01 125.053 140.236L125.523 140.658C125.569 140.698 125.617 140.736 125.668 140.769L127.18 141.766C127.493 141.973 127.697 142.311 127.734 142.686L127.982 145.202C128.032 145.709 127.771 146.195 127.322 146.427L127.191 146.495C126.965 146.612 126.709 146.655 126.458 146.62L125.532 146.488C125.212 146.442 124.889 146.525 124.63 146.718L123.803 147.335C123.534 147.536 123.195 147.617 122.865 147.56L122.763 147.542C122.174 147.44 121.741 146.925 121.738 146.321L121.733 145.469C121.73 144.95 121.408 144.487 120.925 144.307L119.957 143.946C119.489 143.772 119.171 143.331 119.15 142.829L119.149 142.792C119.134 142.442 119.267 142.102 119.515 141.857Z" fill="#AF7E46" stroke="#AF7E46" stroke-width="0.25"/>
<path opacity="0.7" d="M70.2567 104.135L70.0527 104.975C70.0368 105.041 70.0263 105.108 70.0213 105.176L69.9027 106.801C69.8847 107.047 69.7907 107.28 69.6337 107.467C69.3627 107.791 68.9372 107.942 68.5187 107.862L68.4958 107.857C68.1615 107.794 67.8181 107.872 67.5474 108.072L67.3505 108.219C67.0774 108.421 66.7307 108.5 66.3934 108.436L65.79 108.321C65.7291 108.309 65.6675 108.302 65.6058 108.3L63.823 108.231C63.4448 108.216 63.0914 108.029 62.8641 107.722L61.3487 105.677C61.0482 105.271 61.0187 104.728 61.2739 104.301L61.3595 104.157C61.4893 103.94 61.6835 103.769 61.9155 103.668L62.766 103.299C63.0601 103.171 63.2909 102.932 63.409 102.633L63.7935 101.66C63.9164 101.349 64.1609 101.103 64.4709 100.98L64.5468 100.949C65.1072 100.726 65.7528 100.946 66.0703 101.469L66.5045 102.184C66.7773 102.633 67.2992 102.867 67.8092 102.768L68.7839 102.579C69.2781 102.483 69.7855 102.699 70.0649 103.125L70.085 103.155C70.2755 103.446 70.3377 103.801 70.2567 104.135Z" fill="#AF7E46" stroke="#AF7E46" stroke-width="0.25"/>
<path opacity="0.7" d="M16.9551 28.6943L16.1023 28.6642C16.0334 28.6618 15.9646 28.6651 15.8964 28.6741L14.2989 28.8846C14.0523 28.917 13.8008 28.8713 13.5799 28.7537C13.2049 28.554 12.9624 28.1719 12.9434 27.7506L12.9417 27.7136C12.9264 27.3747 12.7719 27.0552 12.5144 26.8303L12.3219 26.662C12.0644 26.4371 11.9099 26.1176 11.8946 25.7787L11.8663 25.1527C11.8636 25.0917 11.8563 25.031 11.8445 24.971L11.4969 23.1966C11.4246 22.8275 11.5243 22.4477 11.7679 22.1646L13.3997 20.2685C13.7275 19.8876 14.2576 19.747 14.738 19.9136L14.8832 19.9639C15.1251 20.0478 15.3361 20.2038 15.4872 20.4106L16.044 21.1724C16.236 21.435 16.5226 21.6135 16.8425 21.6695L17.8691 21.8492C18.2017 21.9075 18.4979 22.098 18.6892 22.3769L18.7454 22.4588C19.0878 22.9578 19.0227 23.6256 18.5912 24.0401L17.9858 24.6218C17.615 24.9781 17.509 25.5297 17.7202 26.004L18.1397 26.9463C18.3443 27.4059 18.2517 27.9396 17.9051 28.2976L17.8799 28.3236C17.6394 28.572 17.3036 28.7066 16.9551 28.6943Z" fill="#AF7E46" stroke="#AF7E46" stroke-width="0.25"/>
<path opacity="0.7" d="M55.9512 46.6937L56.3418 45.9324C56.373 45.8717 56.3991 45.8084 56.4198 45.7432L56.9102 44.2008C56.9853 43.9646 57.1321 43.7591 57.3301 43.6131C57.6684 43.3636 58.1152 43.317 58.5021 43.4908L58.5292 43.503C58.8407 43.6429 59.194 43.6476 59.5056 43.5158L59.7336 43.4194C60.0452 43.2876 60.3985 43.2923 60.71 43.4322L61.2781 43.6875C61.3342 43.7127 61.392 43.7336 61.4511 43.7502L63.1814 44.2355C63.5442 44.3373 63.8432 44.5999 63.9934 44.9489L64.9978 47.2822C65.1985 47.7485 65.1003 48.2875 64.7495 48.6447L64.6388 48.7574C64.4615 48.938 64.2324 49.0582 63.9831 49.1016L63.0663 49.2611C62.7499 49.3162 62.469 49.4944 62.2837 49.7576L61.6858 50.6071C61.4931 50.8808 61.1973 51.0621 60.8665 51.1093L60.7758 51.1223C60.1814 51.207 59.608 50.8452 59.4198 50.2665L59.1584 49.4628C58.9967 48.9656 58.5456 48.6194 58.0291 48.5961L57.0185 48.5507C56.518 48.5281 56.0772 48.202 55.9037 47.7259L55.8911 47.6915C55.7715 47.3634 55.7933 47.0014 55.9512 46.6937Z" fill="#AF7E46" stroke="#AF7E46" stroke-width="0.25"/>
<path opacity="0.7" d="M165.121 194.557L165.815 194.477C166.06 194.449 166.291 194.349 166.478 194.189L168.072 192.827C168.132 192.775 168.197 192.729 168.267 192.69L168.957 192.3C169.683 191.889 170.599 192.301 170.774 193.116L170.792 193.199C170.81 193.285 170.82 193.373 170.819 193.461L170.816 195.11C170.816 195.343 170.75 195.571 170.625 195.768L169.605 197.382L168.99 198.614C168.791 199.012 168.393 199.273 167.948 199.296L167.027 199.344C166.867 199.352 166.708 199.329 166.557 199.277L165.184 198.799C164.818 198.672 164.533 198.38 164.413 198.011L164.034 196.838C163.985 196.685 163.966 196.524 163.978 196.364L164.029 195.692C164.074 195.101 164.532 194.625 165.121 194.557Z" fill="#4D8093" stroke="#4D8093" stroke-width="0.25"/>
<path opacity="0.7" d="M131.738 163.768L132.318 163.363C132.518 163.223 132.672 163.027 132.76 162.799L133.523 160.83C133.551 160.756 133.587 160.685 133.629 160.618L134.052 159.944C134.496 159.237 135.495 159.175 136.031 159.821L136.079 159.879C136.136 159.947 136.185 160.021 136.226 160.1L136.992 161.569C137.101 161.776 137.149 162.01 137.132 162.243L136.991 164.163L137.027 165.556C137.038 166.001 136.813 166.416 136.437 166.645L135.647 167.125C135.511 167.208 135.361 167.263 135.204 167.287L133.783 167.509C133.4 167.569 133.011 167.442 132.732 167.168L131.858 166.307C131.742 166.194 131.65 166.059 131.586 165.91L131.315 165.282C131.08 164.737 131.257 164.103 131.738 163.768Z" fill="#4D8093" stroke="#4D8093" stroke-width="0.25"/>
<path opacity="0.7" d="M87.0893 80.8487L86.4788 80.452C86.2734 80.3185 86.0341 80.2481 85.7911 80.2498L83.6749 80.2641C83.5964 80.2646 83.518 80.2576 83.4407 80.2433L82.652 80.0967C81.8278 79.9436 81.378 79.0331 81.7616 78.2946L81.7913 78.2375C81.8319 78.1592 81.8809 78.0857 81.9374 78.0182L82.9851 76.7668C83.1332 76.5899 83.3286 76.4592 83.5491 76.3897L85.3707 75.8156L86.6429 75.2686C87.0448 75.0958 87.5114 75.1519 87.8678 75.4157L88.6266 75.9774C88.7559 76.0731 88.8658 76.1928 88.9504 76.3297L89.7132 77.5658C89.9205 77.9017 89.9583 78.3138 89.815 78.6765L89.3714 79.7991C89.3123 79.9488 89.2242 80.085 89.1122 80.2L88.6392 80.6852C88.2326 81.1024 87.5848 81.1708 87.0893 80.8487Z" fill="#4D8093" stroke="#4D8093" stroke-width="0.25"/>
<path opacity="0.7" d="M42.0039 28.8465L42.2549 28.148C42.3359 27.9226 42.3487 27.6777 42.2919 27.4435L41.7866 25.3603C41.7683 25.2848 41.7571 25.2079 41.7533 25.1305L41.7131 24.3242C41.6713 23.4863 42.4617 22.8619 43.2739 23.0913L43.3181 23.1038C43.4044 23.1281 43.4879 23.1617 43.5672 23.2039L45.0239 23.9795C45.2298 24.0891 45.4013 24.2537 45.5189 24.4547L46.4989 26.1294L47.3309 27.2771C47.5879 27.6317 47.6404 28.0927 47.4689 28.4905L47.0944 29.3593C47.0316 29.505 46.9409 29.6369 46.8273 29.7477L45.8096 30.7401C45.5279 31.0148 45.1296 31.1367 44.7382 31.0682L43.5588 30.8617C43.3978 30.8335 43.2437 30.774 43.1051 30.6865L42.5173 30.3156C42.022 30.003 41.8082 29.3913 42.0039 28.8465Z" fill="#4D8093" stroke="#4D8093" stroke-width="0.25"/>
<path opacity="0.7" d="M85.8937 118.281L85.3163 118.692C85.118 118.833 84.966 119.03 84.8796 119.259L84.1346 121.236C84.1067 121.31 84.0718 121.381 84.0305 121.448L83.6127 122.126C83.1751 122.837 82.177 122.907 81.635 122.266L81.5874 122.21C81.53 122.142 81.48 122.068 81.4382 121.989L80.6591 120.527C80.5489 120.321 80.4985 120.087 80.5136 119.854L80.6375 117.933L80.5895 116.54C80.5742 116.095 80.7952 115.678 81.169 115.446L81.9551 114.958C82.0901 114.874 82.2401 114.818 82.3967 114.792L83.8153 114.558C84.1975 114.495 84.5882 114.618 84.8695 114.89L85.7508 115.742C85.8672 115.855 85.9608 115.989 86.0264 116.138L86.3029 116.763C86.5428 117.306 86.3716 117.941 85.8937 118.281Z" fill="#4D8093" stroke="#4D8093" stroke-width="0.25"/>
<path opacity="0.7" d="M36.4772 49.5597L35.9313 49.0632C35.7508 48.8991 35.5273 48.7914 35.2883 48.7534L33.1893 48.4197C33.1123 48.4075 33.0364 48.3879 32.9628 48.3613L32.2056 48.0874C31.4161 47.8018 31.1209 46.828 31.6218 46.162L31.6557 46.1169C31.7089 46.0462 31.7695 45.9817 31.8366 45.9243L33.0756 44.8648C33.2507 44.715 33.4648 44.6186 33.6934 44.5865L35.5893 44.3202L36.9409 43.9894C37.3639 43.8859 37.8129 44.0166 38.1208 44.333L38.7836 45.0137C38.8958 45.129 38.985 45.2647 39.0464 45.4134L39.599 46.7517C39.7503 47.1182 39.7204 47.5329 39.5185 47.8685L38.9006 48.8957C38.8173 49.0341 38.7077 49.1542 38.5778 49.2493L38.0284 49.6513C37.5601 49.9941 36.9128 49.9559 36.4772 49.5597Z" fill="#4D8093" stroke="#4D8093" stroke-width="0.25"/>
<g opacity="0.7" filter="url(#filter1_b_537_1459)">
<rect x="1" y="25.8109" width="44.7514" height="270" rx="10" transform="rotate(-35 1 25.8109)" fill="#F7F3F2" fill-opacity="0.1"/>
</g>
</g>
<defs>
<filter id="filter0_d_537_1459" x="0.926453" y="3.92639" width="191.875" height="247.129" filterUnits="userSpaceOnUse" color-interpolation-filters="sRGB">
<feFlood flood-opacity="0" result="BackgroundImageFix"/>
<feColorMatrix in="SourceAlpha" type="matrix" values="0 0 0 0 0 0 0 0 0 0 0 0 0 0 0 0 0 0 127 0" result="hardAlpha"/>
<feOffset dy="4"/>
<feGaussianBlur stdDeviation="2"/>
<feComposite in2="hardAlpha" operator="out"/>
<feColorMatrix type="matrix" values="0 0 0 0 0 0 0 0 0 0 0 0 0 0 0 0 0 0 0.25 0"/>
<feBlend mode="normal" in2="BackgroundImageFix" result="effect1_dropShadow_537_1459"/>
<feBlend mode="normal" in="SourceGraphic" in2="effect1_dropShadow_537_1459" result="shape"/>
</filter>
<filter id="filter1_b_537_1459" x="-0.0735474" y="-0.93103" width="193.671" height="248.987" filterUnits="userSpaceOnUse" color-interpolation-filters="sRGB">
<feFlood flood-opacity="0" result="BackgroundImageFix"/>
<feGaussianBlur in="BackgroundImageFix" stdDeviation="2.5"/>
<feComposite in2="SourceAlpha" operator="in" result="effect1_backgroundBlur_537_1459"/>
<feBlend mode="normal" in="SourceGraphic" in2="effect1_backgroundBlur_537_1459" result="shape"/>
</filter>
</defs>
</svg>
