<svg width="180" height="2160" viewBox="0 0 180 2160" fill="none" xmlns="http://www.w3.org/2000/svg">
<g opacity="0.7">
<rect x="0.994476" width="179.006" height="1080" fill="#F7F3F2"/>
<path d="M46.7514 785.406L46.2931 785.449C45.2906 785.541 44.2837 785.326 43.407 784.831L40.7873 783.352C40.4815 783.179 40.1949 782.974 39.9325 782.741L38.0522 781.069C36.9968 780.131 36.3929 778.786 36.3929 777.374V774.036C36.3929 773.416 36.5095 772.801 36.7366 772.224L38.136 768.669C38.2848 768.291 38.4797 767.933 38.7162 767.602L41.0969 764.276C41.8394 763.239 43.0735 762.669 44.3449 762.776L45.3419 762.861C46.8869 762.992 47.9994 764.402 47.7673 765.935L47.6802 766.51C47.4497 768.032 48.7751 769.334 50.2931 769.077C51.7326 768.834 53.0223 769.998 52.9267 771.455L52.6549 775.597C52.6332 775.929 52.5781 776.257 52.4905 776.578L51.0667 781.786C50.5232 783.774 48.8037 785.217 46.7514 785.406Z" fill="#B39499" stroke="#B39499"/>
<path d="M142.267 593.155L142.026 592.612C141.629 591.715 141.506 590.717 141.675 589.746L142.206 586.686C142.265 586.342 142.361 586.005 142.491 585.681L143.42 583.359C143.956 582.018 145.044 580.974 146.4 580.498L149.399 579.446C149.999 579.235 150.633 579.143 151.267 579.173L154.98 579.354C155.391 579.374 155.797 579.446 156.189 579.568L160.045 580.763C161.258 581.139 162.185 582.123 162.496 583.361L162.768 584.446C163.141 585.934 162.178 587.437 160.673 587.715L160.208 587.801C158.673 588.084 157.851 589.792 158.587 591.168C159.284 592.471 158.586 594.096 157.161 594.491L153.312 595.556C152.983 595.647 152.646 595.704 152.307 595.725L147.041 596.056C144.998 596.184 143.098 595.03 142.267 593.155Z" fill="#B39499" stroke="#B39499"/>
<path d="M112.779 252.717L115.231 253.889C116.206 254.355 116.977 255.17 117.392 256.174L117.446 256.305C118.137 257.971 119.806 259.01 121.586 258.881C123.982 258.708 126.035 260.627 126.047 263.051L126.062 266.041C126.07 267.639 127.188 269.02 128.74 269.35C130.432 269.71 131.584 271.307 131.4 273.036L130.864 278.069C130.633 280.234 129.03 281.983 126.909 282.382L120.945 283.505C117.798 284.098 114.914 281.542 115.087 278.315L115.407 272.369C115.429 271.958 115.4 271.546 115.321 271.142L114.054 264.631C113.805 263.35 113.067 262.215 111.999 261.471L108.999 259.381C108.305 258.898 107.786 258.198 107.522 257.391C106.467 254.166 109.734 251.261 112.779 252.717Z" fill="#4E4E4E" stroke="#4E4E4E"/>
<path d="M165.084 529.635L162.504 530.454C161.475 530.781 160.365 530.711 159.391 530.258L159.263 530.198C157.646 529.445 155.724 529.828 154.499 531.146C152.85 532.92 150.061 532.919 148.442 531.144L146.435 528.946C145.367 527.776 143.624 527.528 142.261 528.352C140.776 529.249 138.865 528.867 137.852 527.469L134.889 523.383C133.62 521.634 133.638 519.248 134.934 517.497L138.575 512.577C140.501 509.974 144.333 509.872 146.354 512.369L150.074 516.965C150.33 517.282 150.625 517.565 150.952 517.809L156.219 521.734C157.256 522.506 158.556 522.835 159.84 522.649L163.434 522.127C164.27 522.006 165.119 522.164 165.852 522.578C168.777 524.229 168.3 528.613 165.084 529.635Z" fill="#4E4E4E" stroke="#4E4E4E"/>
<path d="M52.9253 699.094L50.5746 697.706C49.6435 697.156 48.9455 696.276 48.6167 695.239L48.5745 695.106C48.0285 693.384 46.4548 692.202 44.6703 692.173C42.2669 692.135 40.3863 690.041 40.5816 687.62L40.821 684.651C40.9496 683.056 39.9539 681.58 38.4352 681.114C36.7801 680.607 35.769 678.912 36.1007 677.202L37.0609 672.25C37.4761 670.109 39.2265 668.503 41.3752 668.292L47.4216 667.697C50.6027 667.384 53.2497 670.18 52.8019 673.379L51.9761 679.279C51.919 679.687 51.9124 680.101 51.9564 680.511L52.6634 687.109C52.8025 688.407 53.4401 689.602 54.4385 690.435L57.2552 692.786C57.9036 693.327 58.3598 694.068 58.5536 694.893C59.3291 698.198 55.8293 700.81 52.9253 699.094Z" fill="#4E4E4E" stroke="#4E4E4E"/>
<path d="M95.0082 967.443L93.5958 969.817C93.0423 970.748 92.1627 971.442 91.1271 971.764L90.9986 971.804C89.2782 972.341 88.091 973.911 88.0486 975.706C87.9915 978.127 85.889 979.998 83.4692 979.781L80.5496 979.519C78.9558 979.376 77.4764 980.364 77.0011 981.888C76.4828 983.55 74.7842 984.551 73.0753 984.201L68.2009 983.205C66.0617 982.768 64.4656 980.985 64.2721 978.817L63.727 972.708C63.4425 969.52 66.232 966.903 69.4079 967.378L75.2809 968.258C75.6885 968.319 76.1022 968.329 76.5125 968.288L83.0789 967.629C84.3694 967.5 85.5587 966.872 86.3914 965.879L88.7661 963.049C89.3047 962.407 90.0391 961.958 90.8569 961.771C94.1441 961.019 96.729 964.551 95.0082 967.443Z" fill="#4E4E4E" stroke="#4E4E4E"/>
<path d="M154.07 830.031L153.829 829.488C153.432 828.591 153.31 827.594 153.478 826.622L154.009 823.563C154.069 823.219 154.164 822.882 154.294 822.557L155.223 820.235C155.76 818.895 156.847 817.851 158.203 817.375L161.202 816.322C161.802 816.112 162.437 816.019 163.07 816.05L166.783 816.231C167.194 816.251 167.6 816.322 167.992 816.444L171.848 817.64C173.061 818.016 173.989 818.999 174.299 820.238L174.571 821.322C174.944 822.81 173.981 824.313 172.476 824.591L172.011 824.677C170.476 824.961 169.655 826.669 170.39 828.045C171.087 829.347 170.389 830.973 168.964 831.367L165.115 832.433C164.786 832.524 164.45 832.581 164.11 832.602L158.844 832.932C156.801 833.06 154.901 831.906 154.07 830.031Z" fill="#B39499" stroke="#B39499"/>
<path d="M33.4601 1039L32.9368 1038.8C32.0086 1038.47 31.2003 1037.86 30.6161 1037.05L28.8032 1034.56C28.5971 1034.28 28.4212 1033.97 28.2784 1033.65L27.2564 1031.36C26.6709 1030.05 26.6761 1028.55 27.2706 1027.25L28.6103 1024.32C28.873 1023.74 29.2428 1023.22 29.6997 1022.79L32.4157 1020.22C32.7128 1019.94 33.0438 1019.69 33.401 1019.49L36.9364 1017.53C38.0459 1016.91 39.3978 1016.92 40.5046 1017.56L41.4459 1018.1C42.7796 1018.87 43.1958 1020.61 42.3517 1021.9L42.075 1022.32C41.2205 1023.61 41.8799 1025.38 43.3753 1025.8C44.7917 1026.2 45.4775 1027.83 44.7769 1029.12L42.8568 1032.67C42.6958 1032.97 42.5048 1033.25 42.2868 1033.51L38.8624 1037.56C37.5397 1039.13 35.3891 1039.7 33.4601 1039Z" fill="#B39499" stroke="#B39499"/>
<path d="M71.4484 324.295L71.2075 323.752C70.8099 322.855 70.6876 321.857 70.8562 320.886L71.3869 317.827C71.4466 317.482 71.5422 317.145 71.672 316.821L72.6013 314.499C73.1377 313.158 74.2253 312.114 75.581 311.639L78.5798 310.586C79.1803 310.375 79.8147 310.283 80.4481 310.313L84.1614 310.494C84.572 310.514 84.9781 310.586 85.3703 310.708L89.2264 311.903C90.4392 312.28 91.3667 313.263 91.6772 314.501L91.9492 315.586C92.3222 317.074 91.3588 318.577 89.8543 318.855L89.3889 318.941C87.8545 319.224 87.0327 320.932 87.7684 322.308C88.465 323.611 87.7676 325.236 86.3426 325.631L82.4931 326.697C82.1645 326.788 81.8276 326.844 81.488 326.865L76.2222 327.196C74.1791 327.324 72.2795 326.17 71.4484 324.295Z" fill="#B39499" stroke="#B39499"/>
<path d="M72.0761 843.561C73.4183 840.492 80.3416 838.78 85.4006 837.309C86.9247 836.866 88.5796 837.109 89.8729 838.029L92.2824 839.743C92.5809 839.955 92.9021 840.134 93.24 840.275L98.7547 842.582C100.222 843.197 101.305 844.479 101.664 846.029L102.52 849.727C102.861 851.198 103.855 852.433 105.219 853.08L109.434 855.079C110.091 855.39 110.817 855.527 111.543 855.474L112.351 855.415C114.805 855.237 116.719 857.505 116.131 859.894C115.946 860.646 115.525 861.319 114.929 861.814L111.308 864.824C110.734 865.301 110.289 865.911 109.924 866.563C106.8 872.152 100.958 873.045 98.6331 873.045C97.4848 873.045 94.0063 870.753 87.2445 874.651C84.3842 876.3 80.5316 875.536 79.1537 872.536L78.7918 871.748C78.5782 871.283 78.2936 870.854 77.9484 870.476L72.0761 864.05C65.6827 858.553 70.5023 847.159 72.0761 843.561Z" fill="#AEC0C1" stroke="#AEC0C1"/>
<path d="M109.633 1021C110.976 1017.93 117.899 1016.22 122.958 1014.74C124.482 1014.3 126.137 1014.54 127.43 1015.46L129.84 1017.18C130.138 1017.39 130.459 1017.57 130.797 1017.71L136.312 1020.02C137.78 1020.63 138.862 1021.91 139.221 1023.46L140.077 1027.16C140.418 1028.63 141.412 1029.87 142.776 1030.52L146.991 1032.51C147.648 1032.83 148.375 1032.96 149.1 1032.91L149.908 1032.85C152.362 1032.67 154.276 1034.94 153.688 1037.33C153.503 1038.08 153.082 1038.75 152.486 1039.25L148.866 1042.26C148.292 1042.74 147.846 1043.35 147.482 1044C144.358 1049.59 138.515 1050.48 136.19 1050.48C135.042 1050.48 131.564 1048.19 124.802 1052.09C121.942 1053.73 118.089 1052.97 116.711 1049.97L116.349 1049.18C116.136 1048.72 115.851 1048.29 115.506 1047.91L109.633 1041.49C103.24 1035.99 108.06 1024.59 109.633 1021Z" fill="#AEC0C1" stroke="#AEC0C1"/>
<path d="M87.6896 562.091C91.0029 562.38 94.8829 568.545 97.9109 572.929C98.7888 574.2 99.0885 575.802 98.6676 577.3L97.8351 580.263C97.7371 580.612 97.6772 580.97 97.6565 581.332L97.3091 587.41C97.2177 589.01 96.364 590.474 95.017 591.339L91.9308 593.321C90.6508 594.143 89.8124 595.508 89.6567 597.024L89.1704 601.757C89.0967 602.474 89.2041 603.198 89.4826 603.86L89.867 604.774C90.805 607.004 89.2937 609.522 86.8879 609.736C86.124 609.805 85.3606 609.622 84.7122 609.216L80.7245 606.718C80.0906 606.321 79.3692 606.09 78.634 605.95C72.4275 604.768 69.6931 599.456 68.9347 597.225C68.5566 596.113 69.573 591.964 63.5742 586.679C61.146 584.54 60.644 580.715 62.9695 578.427L63.6519 577.756C64.0221 577.392 64.3336 576.972 64.5752 576.511L68.631 568.781C71.6569 560.846 83.8289 561.755 87.6896 562.091Z" fill="#AEC0C1" stroke="#AEC0C1"/>
<path d="M127.764 459.056C124.795 460.555 118.36 457.364 113.536 455.218C112.108 454.582 111.007 453.346 110.594 451.819L109.803 448.897C109.707 448.543 109.573 448.201 109.404 447.877L106.598 442.514C105.856 441.094 105.831 439.4 106.533 437.962L108.177 434.595C108.843 433.23 108.856 431.628 108.213 430.248L106.215 425.964C105.907 425.305 105.438 424.735 104.854 424.311L104.132 423.787C102.157 422.354 102.131 419.384 104.08 417.928C104.696 417.467 105.443 417.221 106.209 417.225L110.89 417.253C111.633 417.258 112.362 417.075 113.057 416.808C118.967 414.534 124.024 417.63 125.814 419.136C126.702 419.883 127.949 423.932 135.686 425.296C138.892 425.861 141.331 428.908 140.511 432.102L140.284 432.986C140.156 433.488 140.105 434.006 140.134 434.524L140.624 443.275C142.098 451.652 131.234 457.305 127.764 459.056Z" fill="#AEC0C1" stroke="#AEC0C1"/>
<path d="M7.5981 245.006C5.51048 242.379 7.19699 235.273 8.21336 230.019C8.50928 228.489 9.44336 227.153 10.8028 226.422L13.4738 224.986C13.7902 224.816 14.0869 224.611 14.3586 224.375L18.9124 220.423C20.1127 219.381 21.7413 218.993 23.2853 219.381L26.8395 220.273C28.3066 220.641 29.8547 220.31 31.0392 219.374L34.7331 216.456C35.2952 216.012 35.7359 215.431 36.014 214.766L36.3894 213.869C37.3264 211.629 40.1631 210.987 41.9821 212.603C42.5592 213.115 42.9579 213.802 43.1187 214.559L44.1061 219.212C44.263 219.951 44.5985 220.639 45.0076 221.273C48.4674 226.643 46.589 232.326 45.53 234.428C45.0026 235.474 41.3591 237.599 41.753 245.638C41.9133 248.908 39.5387 251.938 36.3016 251.817L35.3629 251.782C34.8491 251.763 34.3362 251.825 33.8427 251.967L25.5449 254.346C17.8155 257.623 10.0323 248.07 7.5981 245.006Z" fill="#AEC0C1" stroke="#AEC0C1"/>
<path d="M35.7553 922.409L36.3278 918.919C36.3711 918.654 36.393 918.387 36.393 918.119V911.526C36.393 910.55 36.6942 909.597 37.2554 908.799C38.2415 907.396 39.935 906.638 41.6408 906.811C42.9845 906.948 44.3444 906.517 45.3538 905.619L46.0803 904.973C47.1152 904.053 48.4885 903.609 49.8662 903.749L52.2475 903.991C52.497 904.016 52.748 904.023 52.9984 904.01L60.0399 903.652C61.5655 903.575 63.0414 904.207 64.0382 905.364L70.6529 913.046C71.9464 914.548 72.2179 916.677 71.3427 918.456L71.0177 919.116C70.5682 920.03 69.8476 920.783 68.9543 921.271L65.6961 923.054C64.5659 923.673 63.7217 924.708 63.343 925.939L62.0912 930.009C61.6971 931.291 60.7997 932.357 59.6044 932.965L59.374 933.082C57.1899 934.191 54.5224 933.535 53.1031 931.538L51.2152 928.881C49.9963 927.167 47.8259 926.411 45.8054 926.997L42.1012 928.073C40.1423 928.641 38.0352 927.949 36.7954 926.329L36.7084 926.215C35.8794 925.132 35.5345 923.755 35.7553 922.409Z" fill="#AF7E46" stroke="#AF7E46"/>
<path d="M122.081 652.146L125.416 651.573C125.687 651.527 125.954 651.457 126.215 651.366L132.278 649.238C133.219 648.907 134.238 648.883 135.188 649.169C136.795 649.652 138.019 650.96 138.402 652.603L138.44 652.766C138.749 654.088 139.584 655.219 140.75 655.897L141.635 656.411C142.802 657.089 143.637 658.221 143.945 659.542L144.52 662.002C144.575 662.24 144.648 662.473 144.738 662.699L147.406 669.437C147.958 670.832 147.849 672.408 147.11 673.722L142.151 682.535C141.151 684.312 139.18 685.302 137.177 685.034L136.59 684.955C135.584 684.821 134.646 684.376 133.905 683.683L131.171 681.125C130.23 680.243 128.979 679.772 127.689 679.811L123.562 679.935C122.22 679.976 120.924 679.464 119.973 678.519L119.682 678.229C117.985 676.541 117.748 673.861 119.122 671.875L121.062 669.071C122.243 667.364 122.25 665.107 121.081 663.411L118.736 660.007C117.603 658.363 117.572 656.187 118.657 654.494L118.736 654.371C119.493 653.19 120.708 652.382 122.081 652.146Z" fill="#AF7E46" stroke="#AF7E46"/>
<path d="M47.2286 415.532L44.631 417.82C44.4277 417.999 44.2393 418.194 44.0677 418.405L39.9506 423.457C39.328 424.221 38.4857 424.769 37.5411 425.023C35.9103 425.462 34.1705 424.979 32.9823 423.757L32.9174 423.69C31.9684 422.715 30.6642 422.182 29.3164 422.219L28.3361 422.246C26.976 422.284 25.6598 421.746 24.7021 420.762L22.9889 419C22.8161 418.822 22.6304 418.658 22.4334 418.509L16.7496 414.194C15.5436 413.278 14.8159 411.853 14.775 410.326L14.5022 400.148C14.4481 398.13 15.5981 396.281 17.4145 395.467L18.0239 395.194C18.9476 394.78 19.9755 394.666 20.9672 394.867L24.6025 395.607C25.8595 395.863 27.1638 395.61 28.2365 394.901L31.7293 392.595C32.8452 391.858 34.2097 391.614 35.5089 391.921L35.827 391.996C38.1758 392.549 39.7861 394.752 39.6271 397.193L39.4095 400.532C39.2728 402.629 40.4473 404.592 42.3451 405.438L45.9729 407.055C47.8122 407.874 48.9781 409.747 48.9168 411.784L48.9125 411.93C48.8707 413.318 48.2603 414.624 47.2286 415.532Z" fill="#AF7E46" stroke="#AF7E46"/>
<path d="M132.142 194.5L135.169 192.901C135.41 192.774 135.641 192.626 135.858 192.46L141.004 188.531C141.792 187.93 142.744 187.594 143.728 187.569C145.409 187.528 146.98 188.4 147.849 189.858L147.91 189.96C148.609 191.133 149.756 191.959 151.079 192.242L152.047 192.449C153.371 192.732 154.518 193.558 155.218 194.731L156.493 196.871C156.619 197.082 156.761 197.284 156.916 197.474L161.472 203.033C162.428 204.199 162.805 205.746 162.496 207.234L160.434 217.184C160.022 219.172 158.463 220.713 156.494 221.078L155.873 221.194C154.878 221.379 153.851 221.247 152.935 220.817L149.565 219.236C148.402 218.691 147.072 218.63 145.862 219.068L141.953 220.479C140.694 220.934 139.309 220.85 138.117 220.245L137.79 220.079C135.648 218.994 134.599 216.492 135.31 214.165L136.298 210.931C136.909 208.931 136.225 206.762 134.586 205.501L131.379 203.033C129.79 201.811 129.094 199.731 129.618 197.773L129.656 197.631C130.017 196.282 130.919 195.146 132.142 194.5Z" fill="#AF7E46" stroke="#AF7E46"/>
<path d="M150.605 929.459L153.063 930.791C153.929 931.26 154.915 931.46 155.896 931.365L164.243 930.558C164.56 930.527 164.879 930.527 165.196 930.558L168.353 930.863C171.674 931.184 173.73 934.634 172.434 937.707L172.302 938.019C172.165 938.344 171.994 938.653 171.791 938.941L167.999 944.336C167.463 945.099 166.722 945.695 165.862 946.054L158.818 949.002L153.975 951.626C152.409 952.475 150.507 952.416 148.997 951.471L145.869 949.515C145.326 949.176 144.855 948.735 144.481 948.216L141.078 943.501C140.171 942.244 139.905 940.635 140.361 939.154L141.811 934.44C142 933.826 142.306 933.254 142.714 932.758L144.425 930.671C145.928 928.838 148.521 928.329 150.605 929.459Z" fill="#4D8093" stroke="#4D8093"/>
<path d="M111.86 751.983L114.693 751.988C115.666 751.989 116.62 751.699 117.435 751.153L124.451 746.451C124.714 746.274 124.992 746.124 125.283 746.001L128.219 744.764C131.295 743.467 134.709 745.556 134.984 748.903L135.008 749.199C135.037 749.553 135.028 749.91 134.982 750.263L134.123 756.833C134.002 757.762 133.624 758.639 133.033 759.364L128.168 765.329L125.088 769.976C124.104 771.46 122.415 772.306 120.659 772.192L116.967 771.954C116.332 771.913 115.713 771.748 115.143 771.468L109.978 768.934C108.588 768.251 107.601 766.943 107.317 765.404L106.428 760.58C106.31 759.943 106.317 759.288 106.448 758.653L107.001 755.975C107.48 753.65 109.514 751.978 111.86 751.983Z" fill="#4D8093" stroke="#4D8093"/>
<path d="M155.807 377.853L154.717 375.152C154.35 374.243 153.728 373.464 152.928 372.912L145.961 368.103C145.703 367.925 145.462 367.722 145.241 367.498L142.993 365.208C140.644 362.815 141.259 358.8 144.211 357.26L144.439 357.141C144.751 356.978 145.081 356.85 145.421 356.758L151.725 355.061C152.616 354.821 153.556 354.842 154.438 355.12L161.723 357.418L167.147 358.545C168.86 358.901 170.261 360.155 170.823 361.837L172.021 365.418C172.225 366.028 172.31 366.673 172.273 367.316L171.937 373.116C171.845 374.692 171.024 376.129 169.722 376.989L165.693 379.649C165.156 380.004 164.555 380.248 163.924 380.368L161.261 380.873C158.971 381.307 156.692 380.045 155.807 377.853Z" fill="#4D8093" stroke="#4D8093"/>
<path d="M66.0088 497.76L63.1746 497.781C62.2015 497.788 61.2502 498.087 60.4411 498.639L53.4658 503.406C53.2046 503.584 52.9272 503.737 52.6375 503.863L49.7127 505.126C46.6482 506.451 43.2161 504.392 42.9118 501.047L42.8851 500.753C42.8529 500.399 42.8584 500.042 42.9014 499.689L43.703 493.111C43.8163 492.181 44.1866 491.3 44.7712 490.57L49.5837 484.562L52.6235 479.886C53.5938 478.393 55.275 477.533 57.0319 477.631L60.7269 477.836C61.3614 477.872 61.9822 478.031 62.555 478.306L67.7405 480.793C69.1377 481.463 70.1356 482.762 70.433 484.299L71.3648 489.114C71.4878 489.75 71.4865 490.405 71.361 491.042L70.832 493.725C70.3729 496.054 68.3539 497.743 66.0088 497.76Z" fill="#4D8093" stroke="#4D8093"/>
<path d="M78.4959 189.276L77.8463 186.397C77.6316 185.445 77.1462 184.579 76.4505 183.907L70.3384 177.998C70.114 177.781 69.9104 177.542 69.7303 177.286L67.8776 174.651C65.9461 171.904 67.2129 168.037 70.3824 167.003L70.5968 166.933C70.9331 166.824 71.2799 166.751 71.6314 166.717L78.1218 166.088C79.0391 165.999 79.962 166.175 80.7848 166.594L87.6078 170.071L92.7955 172.089C94.419 172.72 95.59 174.178 95.8733 175.921L96.483 179.672C96.5862 180.307 96.5673 180.957 96.4272 181.585L95.1674 187.238C94.8224 188.786 93.773 190.076 92.3412 190.713L87.9598 192.661C87.3697 192.923 86.7347 193.065 86.0912 193.078L83.3685 193.135C81.0475 193.184 79.0143 191.573 78.4959 189.276Z" fill="#4D8093" stroke="#4D8093"/>
<path d="M98.6032 39.0642L101.028 37.3511C101.811 36.7984 102.415 36.0256 102.766 35.1276L105.89 27.1426C106.003 26.8533 106.143 26.5755 106.308 26.313L108.026 23.579C109.811 20.7377 113.834 20.5053 115.969 23.1201L116.085 23.2625C116.312 23.5404 116.508 23.842 116.671 24.1622L119.665 30.0455C120.088 30.8769 120.272 31.81 120.197 32.7383L119.565 40.474L119.658 46.1433C119.687 47.8951 118.801 49.5259 117.327 50.4358L114.106 52.4235C113.566 52.7569 112.966 52.9809 112.34 53.0832L106.729 54C105.175 54.2538 103.59 53.7396 102.465 52.617L99.0746 49.2344C98.6119 48.7727 98.2432 48.2239 97.9898 47.6195L96.9149 45.0557C96.0091 42.8951 96.7122 40.4002 98.6032 39.0642Z" fill="#4D8093" stroke="#4D8093"/>
<path d="M24.6359 50.0537L21.9107 47.9984C21.6907 47.8325 21.4576 47.6854 21.2138 47.5585L15.4961 44.5828C14.6137 44.1236 13.8946 43.3964 13.4406 42.5044C12.67 40.9899 12.7521 39.1815 13.6562 37.7575L13.7357 37.6324C14.4631 36.4867 14.6898 35.0854 14.3624 33.7577L14.1175 32.7647C13.7901 31.4369 14.0167 30.0356 14.7442 28.8899L16.0876 26.7741C16.2185 26.568 16.334 26.3522 16.4332 26.1286L19.3651 19.517C19.975 18.1416 21.1732 17.1261 22.6209 16.7575L32.3179 14.2886C34.2659 13.7927 36.3253 14.5482 37.5172 16.1961L37.8773 16.6939C38.4777 17.5239 38.811 18.5192 38.8318 19.5435L38.9084 23.3171C38.9348 24.6178 39.4646 25.8602 40.3841 26.7776L43.3355 29.7221C44.2918 30.6761 44.825 31.9798 44.8121 33.3324L44.8083 33.7297C44.7853 36.1504 43.0399 38.189 40.675 38.5575L37.3569 39.0745C35.3244 39.3913 33.7118 40.9552 33.3154 42.994L32.5281 47.0441C32.1441 49.0194 30.6159 50.5557 28.6592 50.9334L28.5168 50.9608C27.1587 51.223 25.7497 50.8937 24.6359 50.0537Z" fill="#AF7E46" stroke="#AF7E46"/>
<path d="M58.7953 105.908L58.8114 108.604C58.8179 109.683 58.4207 110.723 57.6979 111.52L57.602 111.626C56.4029 112.948 56.1971 114.897 57.0924 116.454C58.2966 118.547 57.4684 121.211 55.2948 122.235L52.5877 123.51C51.155 124.185 50.4009 125.777 50.7828 127.32C51.1989 129.001 50.2668 130.714 48.6329 131.27L43.8341 132.905C41.7888 133.601 39.5191 132.884 38.2326 131.135L34.6178 126.22C32.7005 123.613 33.7415 119.915 36.7297 118.718L42.2243 116.516C42.6029 116.364 42.961 116.166 43.2902 115.926L48.6072 112.048C49.6545 111.284 50.3559 110.137 50.5598 108.855L51.1288 105.276C51.2617 104.44 51.6668 103.673 52.2814 103.093C54.7303 100.784 58.7751 102.532 58.7953 105.908Z" fill="#4E4E4E" stroke="#4E4E4E"/>
<path d="M117.5 111.679L117.9 111.375C118.697 110.771 119.655 110.423 120.647 110.379L123.659 110.245C124.007 110.229 124.355 110.251 124.698 110.31L127.151 110.733C128.541 110.973 129.757 111.806 130.492 113.021L132.194 115.836C132.517 116.371 132.737 116.963 132.842 117.583L133.478 121.341C133.546 121.745 133.565 122.157 133.534 122.567L133.219 126.662C133.121 127.943 132.367 129.082 131.233 129.664L130.312 130.137C128.939 130.841 127.272 130.226 126.68 128.795L126.469 128.287C125.876 126.855 124.071 126.438 122.909 127.465C121.808 128.438 120.105 128.122 119.431 126.818L117.542 123.17C117.388 122.873 117.264 122.56 117.172 122.236L115.706 117.054C115.144 115.066 115.859 112.925 117.5 111.679Z" fill="#B39499" stroke="#B39499"/>
<g filter="url(#filter0_b_1_69)">
<rect width="179.006" height="1080" fill="#F7F3F2" fill-opacity="0.1"/>
</g>
</g>
<g opacity="0.7">
<rect x="0.994476" y="1080" width="179.006" height="1080" fill="#F7F3F2"/>
<path d="M46.7514 1865.41L46.2931 1865.45C45.2906 1865.54 44.2837 1865.33 43.407 1864.83L40.7873 1863.35C40.4815 1863.18 40.1949 1862.97 39.9325 1862.74L38.0522 1861.07C36.9968 1860.13 36.3929 1858.79 36.3929 1857.37V1854.04C36.3929 1853.42 36.5095 1852.8 36.7366 1852.22L38.136 1848.67C38.2848 1848.29 38.4797 1847.93 38.7162 1847.6L41.0969 1844.28C41.8394 1843.24 43.0735 1842.67 44.3449 1842.78L45.3419 1842.86C46.8869 1842.99 47.9994 1844.4 47.7673 1845.93L47.6802 1846.51C47.4497 1848.03 48.7751 1849.33 50.2931 1849.08C51.7326 1848.83 53.0223 1850 52.9267 1851.45L52.6549 1855.6C52.6332 1855.93 52.5781 1856.26 52.4905 1856.58L51.0667 1861.79C50.5232 1863.77 48.8037 1865.22 46.7514 1865.41Z" fill="#B39499" stroke="#B39499"/>
<path d="M142.267 1673.15L142.026 1672.61C141.629 1671.71 141.506 1670.72 141.675 1669.75L142.206 1666.69C142.265 1666.34 142.361 1666.01 142.491 1665.68L143.42 1663.36C143.956 1662.02 145.044 1660.97 146.4 1660.5L149.399 1659.45C149.999 1659.24 150.633 1659.14 151.267 1659.17L154.98 1659.35C155.391 1659.37 155.797 1659.45 156.189 1659.57L160.045 1660.76C161.258 1661.14 162.185 1662.12 162.496 1663.36L162.768 1664.45C163.141 1665.93 162.178 1667.44 160.673 1667.71L160.208 1667.8C158.673 1668.08 157.851 1669.79 158.587 1671.17C159.284 1672.47 158.586 1674.1 157.161 1674.49L153.312 1675.56C152.983 1675.65 152.646 1675.7 152.307 1675.73L147.041 1676.06C144.998 1676.18 143.098 1675.03 142.267 1673.15Z" fill="#B39499" stroke="#B39499"/>
<path d="M112.779 1332.72L115.231 1333.89C116.206 1334.36 116.977 1335.17 117.392 1336.17L117.446 1336.3C118.137 1337.97 119.806 1339.01 121.586 1338.88C123.982 1338.71 126.035 1340.63 126.047 1343.05L126.062 1346.04C126.07 1347.64 127.188 1349.02 128.74 1349.35C130.432 1349.71 131.584 1351.31 131.4 1353.04L130.864 1358.07C130.633 1360.23 129.03 1361.98 126.909 1362.38L120.945 1363.51C117.798 1364.1 114.914 1361.54 115.087 1358.31L115.407 1352.37C115.429 1351.96 115.4 1351.55 115.321 1351.14L114.054 1344.63C113.805 1343.35 113.067 1342.21 111.999 1341.47L108.999 1339.38C108.305 1338.9 107.786 1338.2 107.522 1337.39C106.467 1334.17 109.734 1331.26 112.779 1332.72Z" fill="#4E4E4E" stroke="#4E4E4E"/>
<path d="M165.084 1609.63L162.504 1610.45C161.475 1610.78 160.365 1610.71 159.391 1610.26L159.263 1610.2C157.646 1609.45 155.724 1609.83 154.499 1611.15C152.85 1612.92 150.061 1612.92 148.442 1611.14L146.435 1608.95C145.367 1607.78 143.624 1607.53 142.261 1608.35C140.776 1609.25 138.865 1608.87 137.852 1607.47L134.889 1603.38C133.62 1601.63 133.638 1599.25 134.934 1597.5L138.575 1592.58C140.501 1589.97 144.333 1589.87 146.354 1592.37L150.074 1596.96C150.33 1597.28 150.625 1597.57 150.952 1597.81L156.219 1601.73C157.256 1602.51 158.556 1602.84 159.84 1602.65L163.434 1602.13C164.27 1602.01 165.119 1602.16 165.852 1602.58C168.777 1604.23 168.3 1608.61 165.084 1609.63Z" fill="#4E4E4E" stroke="#4E4E4E"/>
<path d="M52.9253 1779.09L50.5746 1777.71C49.6435 1777.16 48.9455 1776.28 48.6167 1775.24L48.5745 1775.11C48.0285 1773.38 46.4548 1772.2 44.6703 1772.17C42.2669 1772.14 40.3863 1770.04 40.5816 1767.62L40.821 1764.65C40.9496 1763.06 39.9539 1761.58 38.4352 1761.11C36.7801 1760.61 35.769 1758.91 36.1007 1757.2L37.0609 1752.25C37.4761 1750.11 39.2265 1748.5 41.3752 1748.29L47.4216 1747.7C50.6027 1747.38 53.2497 1750.18 52.8019 1753.38L51.9761 1759.28C51.919 1759.69 51.9124 1760.1 51.9564 1760.51L52.6634 1767.11C52.8025 1768.41 53.4401 1769.6 54.4385 1770.44L57.2552 1772.79C57.9036 1773.33 58.3598 1774.07 58.5536 1774.89C59.3291 1778.2 55.8293 1780.81 52.9253 1779.09Z" fill="#4E4E4E" stroke="#4E4E4E"/>
<path d="M95.0082 2047.44L93.5958 2049.82C93.0423 2050.75 92.1627 2051.44 91.1271 2051.76L90.9986 2051.8C89.2782 2052.34 88.091 2053.91 88.0486 2055.71C87.9915 2058.13 85.889 2060 83.4692 2059.78L80.5496 2059.52C78.9558 2059.38 77.4764 2060.36 77.0011 2061.89C76.4828 2063.55 74.7842 2064.55 73.0753 2064.2L68.2009 2063.21C66.0617 2062.77 64.4656 2060.99 64.2721 2058.82L63.727 2052.71C63.4425 2049.52 66.232 2046.9 69.4079 2047.38L75.2809 2048.26C75.6885 2048.32 76.1022 2048.33 76.5125 2048.29L83.0789 2047.63C84.3694 2047.5 85.5587 2046.87 86.3914 2045.88L88.7661 2043.05C89.3047 2042.41 90.0391 2041.96 90.8569 2041.77C94.1441 2041.02 96.729 2044.55 95.0082 2047.44Z" fill="#4E4E4E" stroke="#4E4E4E"/>
<path d="M138.514 1090.16L141.164 1089.66C142.225 1089.46 143.319 1089.67 144.232 1090.24L144.353 1090.31C145.868 1091.26 147.823 1091.11 149.195 1089.95C151.04 1088.4 153.808 1088.74 155.203 1090.69L156.941 1093.13C157.86 1094.42 159.561 1094.88 161.012 1094.23C162.591 1093.52 164.442 1094.13 165.281 1095.64L167.745 1100.07C168.795 1101.96 168.493 1104.32 167.001 1105.9L162.809 1110.33C160.586 1112.68 156.761 1112.31 155.051 1109.59L151.905 1104.57C151.688 1104.23 151.429 1103.91 151.134 1103.63L146.371 1099.09C145.433 1098.19 144.179 1097.71 142.881 1097.74L139.259 1097.81C138.412 1097.83 137.585 1097.57 136.905 1097.07C134.196 1095.07 135.195 1090.78 138.514 1090.16Z" fill="#4E4E4E" stroke="#4E4E4E"/>
<path d="M154.07 1910.03L153.829 1909.49C153.432 1908.59 153.31 1907.59 153.478 1906.62L154.009 1903.56C154.069 1903.22 154.164 1902.88 154.294 1902.56L155.223 1900.24C155.76 1898.89 156.847 1897.85 158.203 1897.38L161.202 1896.32C161.802 1896.11 162.437 1896.02 163.07 1896.05L166.783 1896.23C167.194 1896.25 167.6 1896.32 167.992 1896.44L171.848 1897.64C173.061 1898.02 173.989 1899 174.299 1900.24L174.571 1901.32C174.944 1902.81 173.981 1904.31 172.476 1904.59L172.011 1904.68C170.476 1904.96 169.655 1906.67 170.39 1908.04C171.087 1909.35 170.389 1910.97 168.964 1911.37L165.115 1912.43C164.786 1912.52 164.45 1912.58 164.11 1912.6L158.844 1912.93C156.801 1913.06 154.901 1911.91 154.07 1910.03Z" fill="#B39499" stroke="#B39499"/>
<path d="M33.4601 2119L32.9368 2118.81C32.0086 2118.47 31.2003 2117.86 30.6161 2117.05L28.8032 2114.56C28.5971 2114.28 28.4212 2113.97 28.2784 2113.65L27.2564 2111.36C26.6709 2110.05 26.6761 2108.55 27.2706 2107.25L28.6103 2104.32C28.873 2103.74 29.2428 2103.22 29.6997 2102.79L32.4157 2100.22C32.7128 2099.94 33.0438 2099.69 33.401 2099.49L36.9364 2097.53C38.0459 2096.91 39.3978 2096.93 40.5046 2097.56L41.4459 2098.1C42.7796 2098.87 43.1958 2100.61 42.3517 2101.9L42.075 2102.32C41.2205 2103.61 41.8799 2105.38 43.3753 2105.8C44.7917 2106.2 45.4775 2107.83 44.7769 2109.12L42.8568 2112.67C42.6958 2112.97 42.5048 2113.25 42.2868 2113.51L38.8624 2117.56C37.5397 2119.13 35.3891 2119.7 33.4601 2119Z" fill="#B39499" stroke="#B39499"/>
<path d="M71.4484 1404.29L71.2075 1403.75C70.8099 1402.85 70.6876 1401.86 70.8562 1400.89L71.3869 1397.83C71.4466 1397.48 71.5422 1397.15 71.672 1396.82L72.6013 1394.5C73.1377 1393.16 74.2253 1392.11 75.581 1391.64L78.5798 1390.59C79.1803 1390.38 79.8147 1390.28 80.4481 1390.31L84.1614 1390.49C84.572 1390.51 84.9781 1390.59 85.3703 1390.71L89.2264 1391.9C90.4392 1392.28 91.3667 1393.26 91.6772 1394.5L91.9492 1395.59C92.3222 1397.07 91.3588 1398.58 89.8543 1398.85L89.3889 1398.94C87.8545 1399.22 87.0327 1400.93 87.7684 1402.31C88.465 1403.61 87.7676 1405.24 86.3426 1405.63L82.4931 1406.7C82.1645 1406.79 81.8276 1406.84 81.488 1406.87L76.2222 1407.2C74.1791 1407.32 72.2795 1406.17 71.4484 1404.29Z" fill="#B39499" stroke="#B39499"/>
<path d="M100.713 1128.66L101.113 1128.35C101.91 1127.75 102.867 1127.4 103.859 1127.36L106.872 1127.22C107.22 1127.21 107.568 1127.23 107.91 1127.29L110.364 1127.71C111.753 1127.95 112.97 1128.78 113.705 1130L115.406 1132.81C115.73 1133.35 115.95 1133.94 116.054 1134.56L116.691 1138.32C116.759 1138.72 116.778 1139.13 116.746 1139.54L116.432 1143.64C116.333 1144.92 115.58 1146.06 114.446 1146.64L113.525 1147.11C112.152 1147.82 110.485 1147.2 109.892 1145.77L109.682 1145.26C109.089 1143.83 107.283 1143.42 106.122 1144.44C105.021 1145.42 103.318 1145.1 102.643 1143.8L100.754 1140.15C100.6 1139.85 100.477 1139.54 100.385 1139.21L98.919 1134.03C98.3566 1132.04 99.0711 1129.9 100.713 1128.66Z" fill="#B39499" stroke="#B39499"/>
<path d="M72.0761 1923.56C73.4183 1920.49 80.3416 1918.78 85.4006 1917.31C86.9247 1916.87 88.5796 1917.11 89.8729 1918.03L92.2824 1919.74C92.5809 1919.96 92.9021 1920.13 93.24 1920.28L98.7547 1922.58C100.222 1923.2 101.305 1924.48 101.664 1926.03L102.52 1929.73C102.861 1931.2 103.855 1932.43 105.219 1933.08L109.434 1935.08C110.091 1935.39 110.817 1935.53 111.543 1935.47L112.351 1935.42C114.805 1935.24 116.719 1937.5 116.131 1939.89C115.946 1940.65 115.525 1941.32 114.929 1941.81L111.308 1944.82C110.734 1945.3 110.289 1945.91 109.924 1946.56C106.8 1952.15 100.958 1953.05 98.6331 1953.05C97.4848 1953.05 94.0063 1950.75 87.2445 1954.65C84.3842 1956.3 80.5316 1955.54 79.1537 1952.54L78.7918 1951.75C78.5782 1951.28 78.2936 1950.85 77.9484 1950.48L72.0761 1944.05C65.6827 1938.55 70.5023 1927.16 72.0761 1923.56Z" fill="#AEC0C1" stroke="#AEC0C1"/>
<path d="M109.633 2101C110.976 2097.93 117.899 2096.22 122.958 2094.75C124.482 2094.3 126.137 2094.54 127.43 2095.46L129.84 2097.18C130.138 2097.39 130.459 2097.57 130.797 2097.71L136.312 2100.02C137.78 2100.63 138.862 2101.91 139.221 2103.46L140.077 2107.16C140.418 2108.63 141.412 2109.87 142.776 2110.52L146.991 2112.51C147.648 2112.83 148.375 2112.96 149.1 2112.91L149.908 2112.85C152.362 2112.67 154.276 2114.94 153.688 2117.33C153.503 2118.08 153.082 2118.75 152.486 2119.25L148.866 2122.26C148.292 2122.74 147.846 2123.35 147.482 2124C144.358 2129.59 138.515 2130.48 136.19 2130.48C135.042 2130.48 131.564 2128.19 124.802 2132.09C121.942 2133.74 118.089 2132.97 116.711 2129.97L116.349 2129.18C116.136 2128.72 115.851 2128.29 115.506 2127.91L109.633 2121.49C103.24 2115.99 108.06 2104.59 109.633 2101Z" fill="#AEC0C1" stroke="#AEC0C1"/>
<path d="M87.6896 1642.09C91.0029 1642.38 94.8829 1648.54 97.9109 1652.93C98.7888 1654.2 99.0885 1655.8 98.6676 1657.3L97.8351 1660.26C97.7371 1660.61 97.6772 1660.97 97.6565 1661.33L97.3091 1667.41C97.2177 1669.01 96.364 1670.47 95.017 1671.34L91.9308 1673.32C90.6508 1674.14 89.8124 1675.51 89.6567 1677.02L89.1704 1681.76C89.0967 1682.47 89.2041 1683.2 89.4826 1683.86L89.867 1684.77C90.805 1687 89.2937 1689.52 86.8879 1689.74C86.124 1689.8 85.3606 1689.62 84.7122 1689.22L80.7245 1686.72C80.0906 1686.32 79.3692 1686.09 78.634 1685.95C72.4275 1684.77 69.6931 1679.46 68.9347 1677.23C68.5566 1676.11 69.573 1671.96 63.5742 1666.68C61.146 1664.54 60.644 1660.71 62.9695 1658.43L63.6519 1657.76C64.0221 1657.39 64.3336 1656.97 64.5752 1656.51L68.631 1648.78C71.6569 1640.85 83.8289 1641.75 87.6896 1642.09Z" fill="#AEC0C1" stroke="#AEC0C1"/>
<path d="M127.764 1539.06C124.795 1540.55 118.36 1537.36 113.536 1535.22C112.108 1534.58 111.007 1533.35 110.594 1531.82L109.803 1528.9C109.707 1528.54 109.573 1528.2 109.404 1527.88L106.598 1522.51C105.856 1521.09 105.831 1519.4 106.533 1517.96L108.177 1514.59C108.843 1513.23 108.856 1511.63 108.213 1510.25L106.215 1505.96C105.907 1505.3 105.438 1504.74 104.854 1504.31L104.132 1503.79C102.157 1502.35 102.131 1499.38 104.08 1497.93C104.696 1497.47 105.443 1497.22 106.209 1497.23L110.89 1497.25C111.633 1497.26 112.362 1497.08 113.057 1496.81C118.967 1494.53 124.024 1497.63 125.814 1499.14C126.702 1499.88 127.949 1503.93 135.686 1505.3C138.892 1505.86 141.331 1508.91 140.511 1512.1L140.284 1512.99C140.156 1513.49 140.105 1514.01 140.134 1514.52L140.624 1523.28C142.098 1531.65 131.234 1537.3 127.764 1539.06Z" fill="#AEC0C1" stroke="#AEC0C1"/>
<path d="M7.5981 1325.01C5.51048 1322.38 7.19699 1315.27 8.21336 1310.02C8.50928 1308.49 9.44336 1307.15 10.8028 1306.42L13.4738 1304.99C13.7902 1304.82 14.0869 1304.61 14.3586 1304.38L18.9124 1300.42C20.1127 1299.38 21.7413 1298.99 23.2853 1299.38L26.8395 1300.27C28.3066 1300.64 29.8547 1300.31 31.0392 1299.37L34.7331 1296.46C35.2952 1296.01 35.7359 1295.43 36.014 1294.77L36.3894 1293.87C37.3264 1291.63 40.1631 1290.99 41.9821 1292.6C42.5592 1293.12 42.9579 1293.8 43.1187 1294.56L44.1061 1299.21C44.263 1299.95 44.5985 1300.64 45.0076 1301.27C48.4674 1306.64 46.589 1312.33 45.53 1314.43C45.0026 1315.47 41.3591 1317.6 41.753 1325.64C41.9133 1328.91 39.5387 1331.94 36.3016 1331.82L35.3629 1331.78C34.8491 1331.76 34.3362 1331.82 33.8427 1331.97L25.5449 1334.35C17.8155 1337.62 10.0323 1328.07 7.5981 1325.01Z" fill="#AEC0C1" stroke="#AEC0C1"/>
<path d="M35.7553 2002.41L36.3278 1998.92C36.3711 1998.65 36.393 1998.39 36.393 1998.12V1991.53C36.393 1990.55 36.6942 1989.6 37.2554 1988.8C38.2415 1987.4 39.935 1986.64 41.6408 1986.81C42.9845 1986.95 44.3444 1986.52 45.3538 1985.62L46.0803 1984.97C47.1152 1984.05 48.4885 1983.61 49.8662 1983.75L52.2475 1983.99C52.497 1984.02 52.748 1984.02 52.9984 1984.01L60.0399 1983.65C61.5655 1983.57 63.0414 1984.21 64.0382 1985.36L70.6529 1993.05C71.9464 1994.55 72.2179 1996.68 71.3427 1998.46L71.0177 1999.12C70.5682 2000.03 69.8476 2000.78 68.9543 2001.27L65.6961 2003.05C64.5659 2003.67 63.7217 2004.71 63.343 2005.94L62.0912 2010.01C61.6971 2011.29 60.7997 2012.36 59.6044 2012.96L59.374 2013.08C57.1899 2014.19 54.5224 2013.53 53.1031 2011.54L51.2152 2008.88C49.9963 2007.17 47.8259 2006.41 45.8054 2007L42.1012 2008.07C40.1423 2008.64 38.0352 2007.95 36.7954 2006.33L36.7084 2006.22C35.8794 2005.13 35.5345 2003.76 35.7553 2002.41Z" fill="#AF7E46" stroke="#AF7E46"/>
<path d="M122.081 1732.15L125.416 1731.57C125.687 1731.53 125.954 1731.46 126.215 1731.37L132.278 1729.24C133.219 1728.91 134.238 1728.88 135.188 1729.17C136.795 1729.65 138.019 1730.96 138.402 1732.6L138.44 1732.77C138.749 1734.09 139.584 1735.22 140.75 1735.9L141.635 1736.41C142.802 1737.09 143.637 1738.22 143.945 1739.54L144.52 1742C144.575 1742.24 144.648 1742.47 144.738 1742.7L147.406 1749.44C147.958 1750.83 147.849 1752.41 147.11 1753.72L142.151 1762.54C141.151 1764.31 139.18 1765.3 137.177 1765.03L136.59 1764.96C135.584 1764.82 134.646 1764.38 133.905 1763.68L131.171 1761.12C130.23 1760.24 128.979 1759.77 127.689 1759.81L123.562 1759.94C122.22 1759.98 120.924 1759.46 119.973 1758.52L119.682 1758.23C117.985 1756.54 117.748 1753.86 119.122 1751.88L121.062 1749.07C122.243 1747.36 122.25 1745.11 121.081 1743.41L118.736 1740.01C117.603 1738.36 117.572 1736.19 118.657 1734.49L118.736 1734.37C119.493 1733.19 120.708 1732.38 122.081 1732.15Z" fill="#AF7E46" stroke="#AF7E46"/>
<path d="M47.2286 1495.53L44.6311 1497.82C44.4277 1498 44.2393 1498.19 44.0678 1498.4L39.9507 1503.46C39.328 1504.22 38.4858 1504.77 37.5411 1505.02C35.9104 1505.46 34.1705 1504.98 32.9824 1503.76L32.9174 1503.69C31.9685 1502.71 30.6643 1502.18 29.3165 1502.22L28.3362 1502.25C26.976 1502.28 25.6599 1501.75 24.7022 1500.76L22.989 1499C22.8162 1498.82 22.6305 1498.66 22.4335 1498.51L16.7497 1494.19C15.5437 1493.28 14.816 1491.85 14.7751 1490.33L14.5023 1480.15C14.4482 1478.13 15.5981 1476.28 17.4145 1475.47L18.0239 1475.19C18.9477 1474.78 19.9756 1474.67 20.9673 1474.87L24.6026 1475.61C25.8596 1475.86 27.1638 1475.61 28.2366 1474.9L31.7294 1472.59C32.8453 1471.86 34.2097 1471.61 35.509 1471.92L35.8271 1472C38.1759 1472.55 39.7862 1474.75 39.6271 1477.19L39.4096 1480.53C39.2729 1482.63 40.4474 1484.59 42.3451 1485.44L45.9729 1487.05C47.8123 1487.87 48.9782 1489.75 48.9169 1491.78L48.9125 1491.93C48.8708 1493.32 48.2604 1494.62 47.2286 1495.53Z" fill="#AF7E46" stroke="#AF7E46"/>
<path d="M45.663 1126.05L42.9378 1124C42.7178 1123.83 42.4847 1123.69 42.2409 1123.56L36.5232 1120.58C35.6408 1120.12 34.9217 1119.4 34.4677 1118.5C33.6971 1116.99 33.7792 1115.18 34.6833 1113.76L34.7628 1113.63C35.4902 1112.49 35.7169 1111.09 35.3895 1109.76L35.1446 1108.76C34.8172 1107.44 35.0438 1106.04 35.7713 1104.89L37.1147 1102.77C37.2456 1102.57 37.3611 1102.35 37.4603 1102.13L40.3922 1095.52C41.0021 1094.14 42.2003 1093.13 43.648 1092.76L53.345 1090.29C55.293 1089.79 57.3524 1090.55 58.5443 1092.2L58.9044 1092.69C59.5048 1093.52 59.8381 1094.52 59.8589 1095.54L59.9355 1099.32C59.9619 1100.62 60.4917 1101.86 61.4112 1102.78L64.3626 1105.72C65.3189 1106.68 65.8521 1107.98 65.8392 1109.33L65.8354 1109.73C65.8124 1112.15 64.067 1114.19 61.7021 1114.56L58.384 1115.07C56.3515 1115.39 54.7389 1116.96 54.3425 1118.99L53.5552 1123.04C53.1712 1125.02 51.6429 1126.56 49.6863 1126.93L49.5439 1126.96C48.1858 1127.22 46.7768 1126.89 45.663 1126.05Z" fill="#AF7E46" stroke="#AF7E46"/>
<path d="M132.142 1274.5L135.169 1272.9C135.41 1272.77 135.641 1272.63 135.858 1272.46L141.004 1268.53C141.792 1267.93 142.744 1267.59 143.728 1267.57C145.409 1267.53 146.98 1268.4 147.849 1269.86L147.91 1269.96C148.609 1271.13 149.756 1271.96 151.079 1272.24L152.047 1272.45C153.371 1272.73 154.518 1273.56 155.218 1274.73L156.493 1276.87C156.619 1277.08 156.761 1277.28 156.916 1277.47L161.472 1283.03C162.428 1284.2 162.805 1285.75 162.496 1287.23L160.434 1297.18C160.022 1299.17 158.463 1300.71 156.494 1301.08L155.873 1301.19C154.878 1301.38 153.851 1301.25 152.935 1300.82L149.565 1299.24C148.402 1298.69 147.072 1298.63 145.862 1299.07L141.953 1300.48C140.694 1300.93 139.309 1300.85 138.117 1300.25L137.79 1300.08C135.648 1298.99 134.599 1296.49 135.31 1294.16L136.298 1290.93C136.909 1288.93 136.225 1286.76 134.586 1285.5L131.379 1283.03C129.79 1281.81 129.094 1279.73 129.618 1277.77L129.656 1277.63C130.017 1276.28 130.919 1275.15 132.142 1274.5Z" fill="#AF7E46" stroke="#AF7E46"/>
<path d="M150.605 2009.46L153.063 2010.79C153.929 2011.26 154.915 2011.46 155.896 2011.37L164.243 2010.56C164.56 2010.53 164.879 2010.53 165.196 2010.56L168.353 2010.86C171.674 2011.18 173.73 2014.63 172.434 2017.71L172.302 2018.02C172.165 2018.34 171.994 2018.65 171.791 2018.94L167.999 2024.34C167.463 2025.1 166.722 2025.69 165.862 2026.05L158.818 2029L153.975 2031.63C152.409 2032.48 150.507 2032.42 148.997 2031.47L145.869 2029.52C145.326 2029.18 144.855 2028.74 144.481 2028.22L141.078 2023.5C140.171 2022.24 139.905 2020.64 140.361 2019.15L141.811 2014.44C142 2013.83 142.306 2013.25 142.714 2012.76L144.425 2010.67C145.928 2008.84 148.521 2008.33 150.605 2009.46Z" fill="#4D8093" stroke="#4D8093"/>
<path d="M111.86 1831.98L114.693 1831.99C115.666 1831.99 116.62 1831.7 117.435 1831.15L124.451 1826.45C124.714 1826.27 124.992 1826.12 125.283 1826L128.219 1824.76C131.295 1823.47 134.709 1825.56 134.984 1828.9L135.008 1829.2C135.037 1829.55 135.028 1829.91 134.982 1830.26L134.123 1836.83C134.002 1837.76 133.624 1838.64 133.033 1839.36L128.168 1845.33L125.088 1849.98C124.104 1851.46 122.415 1852.31 120.659 1852.19L116.967 1851.95C116.332 1851.91 115.713 1851.75 115.143 1851.47L109.978 1848.93C108.588 1848.25 107.601 1846.94 107.317 1845.4L106.428 1840.58C106.31 1839.94 106.317 1839.29 106.448 1838.65L107.001 1835.97C107.48 1833.65 109.514 1831.98 111.86 1831.98Z" fill="#4D8093" stroke="#4D8093"/>
<path d="M155.807 1457.85L154.717 1455.15C154.35 1454.24 153.728 1453.46 152.928 1452.91L145.961 1448.1C145.703 1447.92 145.462 1447.72 145.241 1447.5L142.993 1445.21C140.644 1442.82 141.259 1438.8 144.211 1437.26L144.439 1437.14C144.751 1436.98 145.081 1436.85 145.421 1436.76L151.725 1435.06C152.616 1434.82 153.556 1434.84 154.438 1435.12L161.723 1437.42L167.147 1438.54C168.86 1438.9 170.261 1440.15 170.823 1441.84L172.021 1445.42C172.225 1446.03 172.31 1446.67 172.273 1447.32L171.937 1453.12C171.845 1454.69 171.024 1456.13 169.722 1456.99L165.693 1459.65C165.156 1460 164.555 1460.25 163.924 1460.37L161.261 1460.87C158.971 1461.31 156.692 1460.04 155.807 1457.85Z" fill="#4D8093" stroke="#4D8093"/>
<path d="M127.389 1184.02L129.814 1182.31C130.597 1181.76 131.201 1180.98 131.552 1180.09L134.676 1172.1C134.789 1171.81 134.929 1171.53 135.094 1171.27L136.812 1168.54C138.597 1165.7 142.62 1165.46 144.755 1168.08L144.871 1168.22C145.098 1168.5 145.295 1168.8 145.457 1169.12L148.451 1175C148.874 1175.83 149.059 1176.77 148.983 1177.7L148.352 1185.43L148.444 1191.1C148.473 1192.85 147.587 1194.48 146.113 1195.39L142.892 1197.38C142.352 1197.71 141.752 1197.94 141.126 1198.04L135.515 1198.96C133.962 1199.21 132.377 1198.7 131.251 1197.57L127.861 1194.19C127.398 1193.73 127.029 1193.18 126.776 1192.58L125.701 1190.01C124.795 1187.85 125.498 1185.36 127.389 1184.02Z" fill="#4D8093" stroke="#4D8093"/>
<path d="M66.0088 1577.76L63.1746 1577.78C62.2015 1577.79 61.2502 1578.09 60.4411 1578.64L53.4658 1583.41C53.2046 1583.58 52.9272 1583.74 52.6375 1583.86L49.7127 1585.13C46.6482 1586.45 43.2161 1584.39 42.9118 1581.05L42.8851 1580.75C42.8529 1580.4 42.8584 1580.04 42.9014 1579.69L43.703 1573.11C43.8163 1572.18 44.1866 1571.3 44.7712 1570.57L49.5837 1564.56L52.6235 1559.89C53.5938 1558.39 55.275 1557.53 57.0319 1557.63L60.7269 1557.84C61.3614 1557.87 61.9822 1558.03 62.555 1558.31L67.7405 1560.79C69.1377 1561.46 70.1356 1562.76 70.433 1564.3L71.3648 1569.11C71.4878 1569.75 71.4865 1570.4 71.361 1571.04L70.832 1573.73C70.3729 1576.05 68.3539 1577.74 66.0088 1577.76Z" fill="#4D8093" stroke="#4D8093"/>
<path d="M61.7577 1239.21L61.1081 1236.33C60.8934 1235.38 60.408 1234.51 59.7123 1233.84L53.6002 1227.93C53.3758 1227.72 53.1722 1227.48 52.9921 1227.22L51.1394 1224.59C49.2079 1221.84 50.4747 1217.97 53.6442 1216.94L53.8586 1216.87C54.1949 1216.76 54.5417 1216.69 54.8932 1216.65L61.3836 1216.02C62.3009 1215.93 63.2238 1216.11 64.0466 1216.53L70.8696 1220.01L76.0573 1222.02C77.6808 1222.65 78.8518 1224.11 79.1351 1225.86L79.7448 1229.61C79.848 1230.24 79.8291 1230.89 79.6891 1231.52L78.4292 1237.17C78.0842 1238.72 77.0348 1240.01 75.603 1240.65L71.2216 1242.6C70.6315 1242.86 69.9965 1243 69.353 1243.01L66.6303 1243.07C64.3093 1243.12 62.2761 1241.51 61.7577 1239.21Z" fill="#4D8093" stroke="#4D8093"/>
<g filter="url(#filter1_b_1_69)">
<rect y="1080" width="179.006" height="1080" fill="#F7F3F2" fill-opacity="0.1"/>
</g>
</g>
<defs>
<filter id="filter0_b_1_69" x="-10" y="-10" width="199.006" height="1100" filterUnits="userSpaceOnUse" color-interpolation-filters="sRGB">
<feFlood flood-opacity="0" result="BackgroundImageFix"/>
<feGaussianBlur in="BackgroundImageFix" stdDeviation="5"/>
<feComposite in2="SourceAlpha" operator="in" result="effect1_backgroundBlur_1_69"/>
<feBlend mode="normal" in="SourceGraphic" in2="effect1_backgroundBlur_1_69" result="shape"/>
</filter>
<filter id="filter1_b_1_69" x="-10" y="1070" width="199.006" height="1100" filterUnits="userSpaceOnUse" color-interpolation-filters="sRGB">
<feFlood flood-opacity="0" result="BackgroundImageFix"/>
<feGaussianBlur in="BackgroundImageFix" stdDeviation="5"/>
<feComposite in2="SourceAlpha" operator="in" result="effect1_backgroundBlur_1_69"/>
<feBlend mode="normal" in="SourceGraphic" in2="effect1_backgroundBlur_1_69" result="shape"/>
</filter>
</defs>
</svg>
