<svg width="33" height="33" viewBox="0 0 33 33" fill="none" xmlns="http://www.w3.org/2000/svg">
<path d="M32.9836 24.9194C32.6913 27.1509 31.5985 29.2003 29.9086 30.6867C28.2186 32.173 26.0464 32.995 23.7958 33C10.675 33 0 22.325 0 9.20422C0.00496134 6.95364 0.827025 4.78142 2.31335 3.09145C3.79968 1.40148 5.84912 0.30874 8.08065 0.0164088C8.64951 -0.046665 9.22367 0.0731037 9.71988 0.358346C10.2161 0.643589 10.6085 1.07948 10.8403 1.60279L14.1618 9.35295C14.3341 9.75523 14.4032 10.1942 14.3628 10.6299C14.3224 11.0657 14.1738 11.4844 13.9304 11.8482L11.1873 16.0455C12.4295 18.5664 14.4762 20.6014 17.0041 21.8292L21.1518 19.0696C21.5152 18.8246 21.935 18.6763 22.3716 18.6388C22.8082 18.6012 23.2472 18.6755 23.6471 18.8547L31.3972 22.1597C31.9205 22.3915 32.3564 22.7839 32.6417 23.2801C32.9269 23.7763 33.0467 24.3505 32.9836 24.9194ZM20.7222 3.8667C22.7344 4.41645 24.5686 5.48139 26.0436 6.95642C27.5186 8.43145 28.5835 10.2656 29.1333 12.2778C29.2062 12.5604 29.3706 12.8108 29.6008 12.9902C29.8309 13.1695 30.1139 13.2677 30.4057 13.2693C30.5231 13.2691 30.6399 13.2524 30.7527 13.2198C30.9208 13.1758 31.0784 13.0987 31.2163 12.9931C31.3541 12.8874 31.4696 12.7553 31.5557 12.6045C31.6419 12.4537 31.6971 12.2872 31.7182 12.1148C31.7392 11.9423 31.7256 11.7674 31.6781 11.6003C31.0172 9.13595 29.7195 6.88886 27.9153 5.0847C26.1111 3.28054 23.864 1.98282 21.3997 1.32187C21.2272 1.25905 21.0436 1.23282 20.8605 1.24486C20.6773 1.25689 20.4987 1.30693 20.336 1.39178C20.1732 1.47663 20.0299 1.59444 19.9152 1.7377C19.8005 1.88096 19.7169 2.04654 19.6697 2.22389C19.6225 2.40124 19.6127 2.58648 19.641 2.76782C19.6693 2.94915 19.735 3.12261 19.834 3.27714C19.933 3.43168 20.0631 3.56391 20.216 3.66541C20.3689 3.76691 20.5413 3.83546 20.7222 3.8667ZM19.3506 8.97287C20.4691 9.27906 21.4886 9.87133 22.3086 10.6914C23.1287 11.5114 23.7209 12.5309 24.0271 13.6494C24.0975 13.9333 24.2611 14.1854 24.4919 14.3652C24.7226 14.545 25.007 14.6421 25.2995 14.6409C25.4116 14.642 25.5232 14.6253 25.63 14.5913C25.7996 14.5492 25.9589 14.4734 26.0986 14.3685C26.2384 14.2637 26.3556 14.1318 26.4435 13.9808C26.5313 13.8298 26.5879 13.6627 26.61 13.4894C26.6321 13.3161 26.6191 13.1401 26.572 12.9719C26.1546 11.4012 25.3296 9.96874 24.1804 8.81958C23.0313 7.67041 21.5988 6.84538 20.0281 6.42805C19.8557 6.36523 19.672 6.339 19.4889 6.35103C19.3058 6.36307 19.1271 6.41311 18.9644 6.49796C18.8017 6.58281 18.6584 6.70061 18.5437 6.84387C18.429 6.98714 18.3453 7.15271 18.2981 7.33007C18.2509 7.50742 18.2411 7.69266 18.2694 7.87399C18.2977 8.05533 18.3635 8.22879 18.4625 8.38332C18.5615 8.53786 18.6916 8.67008 18.8445 8.77159C18.9974 8.87309 19.1697 8.94164 19.3506 8.97287Z" fill="#4E4E4E"/>
</svg>
